#include "../inc/hUGEDriver.h"
#include <stddef.h>

static const unsigned char order_cnt = 72;

static const unsigned char P0[] = {
    DN(___,0,0x821),
    DN(___,0,0x000),
    DN(___,0,0x000),
    DN(___,0,0x000),
    DN(___,0,0x000),
    DN(___,0,0x000),
    DN(___,0,0x000),
    DN(___,0,0x000),
    DN(___,0,0x000),
    DN(___,0,0x000),
    DN(___,0,0x000),
    DN(___,0,0x000),
    DN(___,0,0x000),
    DN(___,0,0x000),
    DN(___,0,0x000),
    DN(___,0,0x000),
    DN(___,0,0x000),
    DN(___,0,0x000),
    DN(___,0,0x000),
    DN(___,0,0x000),
    DN(___,0,0x000),
    DN(___,0,0x000),
    DN(___,0,0x000),
    DN(___,0,0x000),
    DN(___,0,0x000),
    DN(___,0,0x000),
    DN(___,0,0x000),
    DN(___,0,0x000),
    DN(___,0,0x000),
    DN(___,0,0x000),
    DN(___,0,0x000),
    DN(___,0,0x000),
    DN(___,0,0x000),
    DN(___,0,0x000),
    DN(___,0,0x000),
    DN(___,0,0x000),
    DN(___,0,0x000),
    DN(___,0,0x000),
    DN(___,0,0x000),
    DN(___,0,0x000),
    DN(___,0,0x000),
    DN(___,0,0x000),
    DN(___,0,0x000),
    DN(___,0,0x000),
    DN(___,0,0x000),
    DN(___,0,0x000),
    DN(___,0,0x000),
    DN(___,0,0xD01),
    DN(___,0,0x000),
    DN(___,0,0x000),
    DN(___,0,0x000),
    DN(___,0,0x000),
    DN(___,0,0x000),
    DN(___,0,0x000),
    DN(___,0,0x000),
    DN(___,0,0x000),
    DN(___,0,0x000),
    DN(___,0,0x000),
    DN(___,0,0x000),
    DN(___,0,0x000),
    DN(___,0,0x000),
    DN(___,0,0x000),
    DN(___,0,0x000),
    DN(___,0,0x000),
};
static const unsigned char P1[] = {
    DN(D_6,4,0xC3F),
    DN(___,0,0x000),
    DN(___,0,0x000),
    DN(___,0,0x000),
    DN(Fs6,4,0xC3F),
    DN(___,0,0x000),
    DN(___,0,0x000),
    DN(___,0,0x000),
    DN(B_6,4,0xC3F),
    DN(___,0,0x000),
    DN(___,0,0x000),
    DN(___,0,0x000),
    DN(Fs6,4,0xC3F),
    DN(___,0,0x000),
    DN(___,0,0x000),
    DN(___,0,0x000),
    DN(Cs6,4,0xC3F),
    DN(___,0,0x000),
    DN(___,0,0x000),
    DN(___,0,0x000),
    DN(Fs6,4,0xC3F),
    DN(___,0,0x000),
    DN(___,0,0x000),
    DN(___,0,0x000),
    DN(D_6,4,0xC3F),
    DN(___,0,0x000),
    DN(___,0,0x000),
    DN(___,0,0x000),
    DN(Fs6,4,0xC3F),
    DN(___,0,0x000),
    DN(___,0,0x000),
    DN(___,0,0x000),
    DN(B_5,4,0xC3F),
    DN(___,0,0x000),
    DN(___,0,0x000),
    DN(___,0,0x000),
    DN(Fs6,4,0xC3F),
    DN(___,0,0x000),
    DN(___,0,0x000),
    DN(___,0,0x000),
    DN(As5,4,0xC3F),
    DN(___,0,0x000),
    DN(___,0,0x000),
    DN(___,0,0x000),
    DN(Fs6,4,0xC3F),
    DN(___,0,0x000),
    DN(___,0,0x000),
    DN(___,0,0x000),
    DN(___,0,0x000),
    DN(___,0,0x000),
    DN(___,0,0x000),
    DN(___,0,0x000),
    DN(___,0,0x000),
    DN(___,0,0x000),
    DN(___,0,0x000),
    DN(___,0,0x000),
    DN(___,0,0x000),
    DN(___,0,0x000),
    DN(___,0,0x000),
    DN(___,0,0x000),
    DN(___,0,0x000),
    DN(___,0,0x000),
    DN(___,0,0x000),
    DN(___,0,0x000),
};
static const unsigned char P2[] = {
    DN(B_3,2,0xC4A),
    DN(___,0,0x000),
    DN(___,0,0x000),
    DN(___,0,0x000),
    DN(___,0,0x000),
    DN(___,0,0x000),
    DN(___,0,0x000),
    DN(___,0,0x000),
    DN(B_4,2,0xC4A),
    DN(___,0,0x000),
    DN(___,0,0x000),
    DN(___,0,0x000),
    DN(___,0,0x000),
    DN(___,0,0x000),
    DN(___,0,0x000),
    DN(___,0,0x000),
    DN(As4,2,0xC4A),
    DN(___,0,0x000),
    DN(___,0,0x000),
    DN(___,0,0x000),
    DN(___,0,0x000),
    DN(___,0,0x000),
    DN(___,0,0x000),
    DN(___,0,0x000),
    DN(B_4,2,0xC4A),
    DN(___,0,0x000),
    DN(___,0,0x000),
    DN(___,0,0x000),
    DN(___,0,0x000),
    DN(___,0,0x000),
    DN(___,0,0x000),
    DN(___,0,0x000),
    DN(D_5,2,0xC4A),
    DN(___,0,0x000),
    DN(___,0,0x000),
    DN(___,0,0x000),
    DN(___,0,0x000),
    DN(___,0,0x000),
    DN(___,0,0x000),
    DN(___,0,0x000),
    DN(Fs5,2,0xC4A),
    DN(___,0,0x000),
    DN(___,0,0x000),
    DN(___,0,0x000),
    DN(___,0,0x000),
    DN(___,0,0x000),
    DN(___,0,0x000),
    DN(___,0,0x000),
    DN(___,0,0x000),
    DN(___,0,0x000),
    DN(___,0,0x000),
    DN(___,0,0x000),
    DN(___,0,0x000),
    DN(___,0,0x000),
    DN(___,0,0x000),
    DN(___,0,0x000),
    DN(___,0,0x000),
    DN(___,0,0x000),
    DN(___,0,0x000),
    DN(___,0,0x000),
    DN(___,0,0x000),
    DN(___,0,0x000),
    DN(___,0,0x000),
    DN(___,0,0x000),
};
static const unsigned char P3[] = {
    DN(D_5,2,0xC4A),
    DN(___,0,0x000),
    DN(___,0,0x000),
    DN(___,0,0x000),
    DN(___,0,0x000),
    DN(___,0,0x000),
    DN(___,0,0x000),
    DN(___,0,0x000),
    DN(B_4,2,0xC4A),
    DN(___,0,0x000),
    DN(___,0,0x000),
    DN(___,0,0x000),
    DN(___,0,0x000),
    DN(___,0,0x000),
    DN(___,0,0x000),
    DN(___,0,0x000),
    DN(As4,2,0xC4A),
    DN(___,0,0x000),
    DN(___,0,0x000),
    DN(___,0,0x000),
    DN(___,0,0x000),
    DN(___,0,0x000),
    DN(___,0,0x000),
    DN(___,0,0x000),
    DN(B_4,2,0xC4A),
    DN(___,0,0x000),
    DN(___,0,0x000),
    DN(___,0,0x000),
    DN(___,0,0x000),
    DN(___,0,0x000),
    DN(___,0,0x000),
    DN(___,0,0x000),
    DN(D_4,2,0xC4A),
    DN(___,0,0x000),
    DN(___,0,0x000),
    DN(___,0,0x000),
    DN(___,0,0x000),
    DN(___,0,0x000),
    DN(___,0,0x000),
    DN(___,0,0x000),
    DN(Fs4,2,0xC4A),
    DN(___,0,0x000),
    DN(___,0,0x000),
    DN(___,0,0x000),
    DN(___,0,0x000),
    DN(___,0,0x000),
    DN(___,0,0x000),
    DN(___,0,0x000),
    DN(___,0,0x000),
    DN(___,0,0x000),
    DN(___,0,0x000),
    DN(___,0,0x000),
    DN(___,0,0x000),
    DN(___,0,0x000),
    DN(___,0,0x000),
    DN(___,0,0x000),
    DN(___,0,0x000),
    DN(___,0,0x000),
    DN(___,0,0x000),
    DN(___,0,0x000),
    DN(___,0,0x000),
    DN(___,0,0x000),
    DN(___,0,0x000),
    DN(___,0,0x000),
};
static const unsigned char P4[] = {
    DN(D_6,4,0xC3F),
    DN(___,0,0x000),
    DN(___,0,0x000),
    DN(___,0,0x000),
    DN(Fs6,4,0xC3F),
    DN(___,0,0x000),
    DN(___,0,0x000),
    DN(___,0,0x000),
    DN(D_6,4,0xC3F),
    DN(___,0,0x000),
    DN(___,0,0x000),
    DN(___,0,0x000),
    DN(B_5,4,0xC3F),
    DN(___,0,0x000),
    DN(___,0,0x000),
    DN(___,0,0x000),
    DN(G_6,4,0xC3F),
    DN(___,0,0x000),
    DN(___,0,0x000),
    DN(___,0,0x000),
    DN(E_6,4,0xC3F),
    DN(___,0,0x000),
    DN(___,0,0x000),
    DN(___,0,0x000),
    DN(Cs6,4,0xC3F),
    DN(___,0,0x000),
    DN(___,0,0x000),
    DN(___,0,0x000),
    DN(E_6,4,0xC3F),
    DN(___,0,0x000),
    DN(___,0,0x000),
    DN(___,0,0x000),
    DN(Cs6,4,0xC3F),
    DN(___,0,0x000),
    DN(___,0,0x000),
    DN(___,0,0x000),
    DN(A_5,4,0xC3F),
    DN(___,0,0x000),
    DN(___,0,0x000),
    DN(___,0,0x000),
    DN(Fs6,4,0xC3F),
    DN(___,0,0x000),
    DN(___,0,0x000),
    DN(___,0,0x000),
    DN(D_6,4,0xC3F),
    DN(___,0,0x000),
    DN(___,0,0x000),
    DN(___,0,0x000),
    DN(___,0,0x000),
    DN(___,0,0x000),
    DN(___,0,0x000),
    DN(___,0,0x000),
    DN(___,0,0x000),
    DN(___,0,0x000),
    DN(___,0,0x000),
    DN(___,0,0x000),
    DN(___,0,0x000),
    DN(___,0,0x000),
    DN(___,0,0x000),
    DN(___,0,0x000),
    DN(___,0,0x000),
    DN(___,0,0x000),
    DN(___,0,0x000),
    DN(___,0,0x000),
};
static const unsigned char P5[] = {
    DN(B_3,2,0xC4A),
    DN(___,0,0x000),
    DN(___,0,0x000),
    DN(___,0,0x000),
    DN(___,0,0x000),
    DN(___,0,0x000),
    DN(___,0,0x000),
    DN(___,0,0x000),
    DN(B_4,2,0xC4A),
    DN(___,0,0x000),
    DN(___,0,0x000),
    DN(___,0,0x000),
    DN(___,0,0x000),
    DN(___,0,0x000),
    DN(___,0,0x000),
    DN(___,0,0x000),
    DN(E_4,2,0xC4A),
    DN(___,0,0x000),
    DN(___,0,0x000),
    DN(___,0,0x000),
    DN(___,0,0x000),
    DN(___,0,0x000),
    DN(___,0,0x000),
    DN(___,0,0x000),
    DN(A_3,2,0xC4A),
    DN(___,0,0x000),
    DN(___,0,0x000),
    DN(___,0,0x000),
    DN(___,0,0x000),
    DN(___,0,0x000),
    DN(___,0,0x000),
    DN(___,0,0x000),
    DN(A_4,2,0xC4A),
    DN(___,0,0x000),
    DN(___,0,0x000),
    DN(___,0,0x000),
    DN(___,0,0x000),
    DN(___,0,0x000),
    DN(___,0,0x000),
    DN(___,0,0x000),
    DN(D_4,2,0xC4A),
    DN(___,0,0x000),
    DN(___,0,0x000),
    DN(___,0,0x000),
    DN(___,0,0x000),
    DN(___,0,0x000),
    DN(___,0,0x000),
    DN(___,0,0x000),
    DN(___,0,0x000),
    DN(___,0,0x000),
    DN(___,0,0x000),
    DN(___,0,0x000),
    DN(___,0,0x000),
    DN(___,0,0x000),
    DN(___,0,0x000),
    DN(___,0,0x000),
    DN(___,0,0x000),
    DN(___,0,0x000),
    DN(___,0,0x000),
    DN(___,0,0x000),
    DN(___,0,0x000),
    DN(___,0,0x000),
    DN(___,0,0x000),
    DN(___,0,0x000),
};
static const unsigned char P6[] = {
    DN(B_5,4,0xC3F),
    DN(___,0,0x000),
    DN(___,0,0x000),
    DN(___,0,0x000),
    DN(Fs6,4,0xC3F),
    DN(___,0,0x000),
    DN(___,0,0x000),
    DN(___,0,0x000),
    DN(E_6,4,0xC3F),
    DN(___,0,0x000),
    DN(___,0,0x000),
    DN(___,0,0x000),
    DN(D_6,4,0xC3F),
    DN(___,0,0x000),
    DN(___,0,0x000),
    DN(___,0,0x000),
    DN(Cs6,4,0xC3F),
    DN(___,0,0x000),
    DN(___,0,0x000),
    DN(___,0,0x000),
    DN(B_5,4,0xC3F),
    DN(___,0,0x000),
    DN(___,0,0x000),
    DN(___,0,0x000),
    DN(As5,4,0xC3F),
    DN(___,0,0x000),
    DN(___,0,0x000),
    DN(___,0,0x000),
    DN(Fs5,4,0xC3F),
    DN(___,0,0x000),
    DN(___,0,0x000),
    DN(___,0,0x000),
    DN(As5,4,0xC3F),
    DN(___,0,0x000),
    DN(___,0,0x000),
    DN(___,0,0x000),
    DN(Cs6,4,0xC3F),
    DN(___,0,0x000),
    DN(___,0,0x000),
    DN(___,0,0x000),
    DN(Fs6,4,0xC3F),
    DN(___,0,0x000),
    DN(___,0,0x000),
    DN(___,0,0x000),
    DN(E_6,4,0xC3F),
    DN(___,0,0x000),
    DN(___,0,0x000),
    DN(___,0,0x000),
    DN(___,0,0x000),
    DN(___,0,0x000),
    DN(___,0,0x000),
    DN(___,0,0x000),
    DN(___,0,0x000),
    DN(___,0,0x000),
    DN(___,0,0x000),
    DN(___,0,0x000),
    DN(___,0,0x000),
    DN(___,0,0x000),
    DN(___,0,0x000),
    DN(___,0,0x000),
    DN(___,0,0x000),
    DN(___,0,0x000),
    DN(___,0,0x000),
    DN(___,0,0x000),
};
static const unsigned char P7[] = {
    DN(G_3,2,0xC4A),
    DN(___,0,0x000),
    DN(___,0,0x000),
    DN(___,0,0x000),
    DN(___,0,0x000),
    DN(___,0,0x000),
    DN(___,0,0x000),
    DN(___,0,0x000),
    DN(G_4,2,0xC4A),
    DN(___,0,0x000),
    DN(___,0,0x000),
    DN(___,0,0x000),
    DN(___,0,0x000),
    DN(___,0,0x000),
    DN(___,0,0x000),
    DN(___,0,0x000),
    DN(E_4,2,0xC4A),
    DN(___,0,0x000),
    DN(___,0,0x000),
    DN(___,0,0x000),
    DN(___,0,0x000),
    DN(___,0,0x000),
    DN(___,0,0x000),
    DN(___,0,0x000),
    DN(Fs4,2,0xC4A),
    DN(___,0,0x000),
    DN(___,0,0x000),
    DN(___,0,0x000),
    DN(G_4,2,0xC4A),
    DN(___,0,0x000),
    DN(___,0,0x000),
    DN(___,0,0x000),
    DN(Fs4,2,0xC4A),
    DN(___,0,0x000),
    DN(___,0,0x000),
    DN(___,0,0x000),
    DN(E_4,2,0xC4A),
    DN(___,0,0x000),
    DN(___,0,0x000),
    DN(___,0,0x000),
    DN(D_4,2,0xC4A),
    DN(___,0,0x000),
    DN(___,0,0x000),
    DN(___,0,0x000),
    DN(Cs4,4,0xC4A),
    DN(___,0,0x000),
    DN(___,0,0x000),
    DN(___,0,0x000),
    DN(___,0,0x000),
    DN(___,0,0x000),
    DN(___,0,0x000),
    DN(___,0,0x000),
    DN(___,0,0x000),
    DN(___,0,0x000),
    DN(___,0,0x000),
    DN(___,0,0x000),
    DN(___,0,0x000),
    DN(___,0,0x000),
    DN(___,0,0x000),
    DN(___,0,0x000),
    DN(___,0,0x000),
    DN(___,0,0x000),
    DN(___,0,0x000),
    DN(___,0,0x000),
};
static const unsigned char P8[] = {
    DN(D_6,4,0xC3F),
    DN(___,0,0x000),
    DN(___,0,0x000),
    DN(___,0,0x000),
    DN(Fs6,4,0xC3F),
    DN(___,0,0x000),
    DN(___,0,0x000),
    DN(___,0,0x000),
    DN(D_6,4,0xC3F),
    DN(___,0,0x000),
    DN(___,0,0x000),
    DN(___,0,0x000),
    DN(B_5,4,0xC3F),
    DN(___,0,0x000),
    DN(___,0,0x000),
    DN(___,0,0x000),
    DN(G_6,4,0xC3F),
    DN(___,0,0x000),
    DN(___,0,0x000),
    DN(___,0,0x000),
    DN(E_6,4,0xC3F),
    DN(___,0,0x000),
    DN(___,0,0x000),
    DN(___,0,0x000),
    DN(Cs6,4,0xC3F),
    DN(___,0,0x000),
    DN(___,0,0x000),
    DN(___,0,0x000),
    DN(E_6,4,0xC3F),
    DN(___,0,0x000),
    DN(___,0,0x000),
    DN(___,0,0x000),
    DN(Cs6,4,0xC3F),
    DN(___,0,0x000),
    DN(___,0,0x000),
    DN(___,0,0x000),
    DN(A_5,4,0xC3F),
    DN(___,0,0x000),
    DN(___,0,0x000),
    DN(___,0,0x000),
    DN(A_6,4,0xC3F),
    DN(___,0,0x000),
    DN(___,0,0x000),
    DN(___,0,0x000),
    DN(E_6,4,0xC3F),
    DN(___,0,0x000),
    DN(___,0,0x000),
    DN(___,0,0x000),
    DN(___,0,0x000),
    DN(___,0,0x000),
    DN(___,0,0x000),
    DN(___,0,0x000),
    DN(___,0,0x000),
    DN(___,0,0x000),
    DN(___,0,0x000),
    DN(___,0,0x000),
    DN(___,0,0x000),
    DN(___,0,0x000),
    DN(___,0,0x000),
    DN(___,0,0x000),
    DN(___,0,0x000),
    DN(___,0,0x000),
    DN(___,0,0x000),
    DN(___,0,0x000),
};
static const unsigned char P9[] = {
    DN(Fs6,4,0xC3F),
    DN(___,0,0x000),
    DN(___,0,0x000),
    DN(___,0,0x000),
    DN(A_6,4,0xC3F),
    DN(___,0,0x000),
    DN(___,0,0x000),
    DN(___,0,0x000),
    DN(Fs6,4,0xC3F),
    DN(___,0,0x000),
    DN(___,0,0x000),
    DN(___,0,0x000),
    DN(D_6,4,0xC3F),
    DN(___,0,0x000),
    DN(___,0,0x000),
    DN(___,0,0x000),
    DN(A_5,4,0xC3F),
    DN(___,0,0x000),
    DN(___,0,0x000),
    DN(___,0,0x000),
    DN(Cs6,4,0xC3F),
    DN(___,0,0x000),
    DN(___,0,0x000),
    DN(___,0,0x000),
    DN(D_6,4,0xC3F),
    DN(___,0,0x000),
    DN(___,0,0x000),
    DN(___,0,0x000),
    DN(___,0,0x000),
    DN(___,0,0x000),
    DN(___,0,0x000),
    DN(___,0,0x000),
    DN(___,0,0x000),
    DN(___,0,0x000),
    DN(___,0,0x000),
    DN(___,0,0x000),
    DN(___,0,0x000),
    DN(___,0,0x000),
    DN(___,0,0x000),
    DN(___,0,0x000),
    DN(___,0,0x000),
    DN(___,0,0x000),
    DN(___,0,0x000),
    DN(___,0,0x000),
    DN(___,0,0x000),
    DN(___,0,0x000),
    DN(___,0,0x000),
    DN(___,0,0x000),
    DN(___,0,0x000),
    DN(___,0,0x000),
    DN(___,0,0x000),
    DN(___,0,0x000),
    DN(___,0,0x000),
    DN(___,0,0x000),
    DN(___,0,0x000),
    DN(___,0,0x000),
    DN(___,0,0x000),
    DN(___,0,0x000),
    DN(___,0,0x000),
    DN(___,0,0x000),
    DN(___,0,0x000),
    DN(___,0,0x000),
    DN(___,0,0x000),
    DN(___,0,0x000),
};
static const unsigned char P10[] = {
    DN(D_4,4,0xC4A),
    DN(___,0,0x000),
    DN(___,0,0x000),
    DN(___,0,0x000),
    DN(___,0,0x000),
    DN(___,0,0x000),
    DN(___,0,0x000),
    DN(___,0,0x000),
    DN(Fs4,4,0xC4A),
    DN(___,0,0x000),
    DN(___,0,0x000),
    DN(___,0,0x000),
    DN(___,0,0x000),
    DN(___,0,0x000),
    DN(___,0,0x000),
    DN(___,0,0x000),
    DN(A_4,4,0xC4A),
    DN(___,0,0x000),
    DN(___,0,0x000),
    DN(___,0,0x000),
    DN(___,0,0x000),
    DN(___,0,0x000),
    DN(___,0,0x000),
    DN(___,0,0x000),
    DN(D_4,4,0xC4A),
    DN(___,0,0x000),
    DN(___,0,0x000),
    DN(___,0,0x000),
    DN(___,0,0x000),
    DN(___,0,0x000),
    DN(___,0,0x000),
    DN(___,0,0x000),
    DN(A_3,4,0xC4A),
    DN(___,0,0x000),
    DN(___,0,0x000),
    DN(___,0,0x000),
    DN(___,0,0x000),
    DN(___,0,0x000),
    DN(___,0,0x000),
    DN(___,0,0x000),
    DN(D_3,4,0xC4A),
    DN(___,0,0x000),
    DN(___,0,0x000),
    DN(___,0,0x000),
    DN(___,0,0x000),
    DN(___,0,0x000),
    DN(___,0,0x000),
    DN(___,0,0x000),
    DN(___,0,0x000),
    DN(___,0,0x000),
    DN(___,0,0x000),
    DN(___,0,0x000),
    DN(___,0,0x000),
    DN(___,0,0x000),
    DN(___,0,0x000),
    DN(___,0,0x000),
    DN(___,0,0x000),
    DN(___,0,0x000),
    DN(___,0,0x000),
    DN(___,0,0x000),
    DN(___,0,0x000),
    DN(___,0,0x000),
    DN(___,0,0x000),
    DN(___,0,0x000),
};
static const unsigned char P11[] = {
    DN(A_6,4,0xC3F),
    DN(___,0,0x000),
    DN(___,0,0x000),
    DN(___,0,0x000),
    DN(G_6,4,0xC3F),
    DN(___,0,0x000),
    DN(___,0,0x000),
    DN(___,0,0x000),
    DN(Fs6,4,0xC3F),
    DN(___,0,0x000),
    DN(___,0,0x000),
    DN(___,0,0x000),
    DN(E_6,4,0xC3F),
    DN(___,0,0x000),
    DN(___,0,0x000),
    DN(___,0,0x000),
    DN(D_6,4,0xC3F),
    DN(___,0,0x000),
    DN(___,0,0x000),
    DN(___,0,0x000),
    DN(Cs6,4,0xC3F),
    DN(___,0,0x000),
    DN(___,0,0x000),
    DN(___,0,0x000),
    DN(D_6,4,0xC3F),
    DN(___,0,0x000),
    DN(___,0,0x000),
    DN(___,0,0x000),
    DN(E_6,4,0xC3F),
    DN(___,0,0x000),
    DN(___,0,0x000),
    DN(___,0,0x000),
    DN(Fs6,4,0xC3F),
    DN(___,0,0x000),
    DN(___,0,0x000),
    DN(___,0,0x000),
    DN(D_6,4,0xC3F),
    DN(___,0,0x000),
    DN(___,0,0x000),
    DN(___,0,0x000),
    DN(E_6,4,0xC3F),
    DN(___,0,0x000),
    DN(___,0,0x000),
    DN(___,0,0x000),
    DN(Fs6,4,0xC3F),
    DN(___,0,0x000),
    DN(___,0,0x000),
    DN(___,0,0x000),
    DN(___,0,0x000),
    DN(___,0,0x000),
    DN(___,0,0x000),
    DN(___,0,0x000),
    DN(___,0,0x000),
    DN(___,0,0x000),
    DN(___,0,0x000),
    DN(___,0,0x000),
    DN(___,0,0x000),
    DN(___,0,0x000),
    DN(___,0,0x000),
    DN(___,0,0x000),
    DN(___,0,0x000),
    DN(___,0,0x000),
    DN(___,0,0x000),
    DN(___,0,0x000),
};
static const unsigned char P12[] = {
    DN(Fs4,2,0xC4A),
    DN(___,0,0x000),
    DN(___,0,0x000),
    DN(___,0,0x000),
    DN(A_4,2,0xC4A),
    DN(___,0,0x000),
    DN(___,0,0x000),
    DN(___,0,0x000),
    DN(D_5,2,0xC4A),
    DN(___,0,0x000),
    DN(___,0,0x000),
    DN(___,0,0x000),
    DN(A_4,2,0xC4A),
    DN(___,0,0x000),
    DN(___,0,0x000),
    DN(___,0,0x000),
    DN(E_4,2,0xC4A),
    DN(___,0,0x000),
    DN(___,0,0x000),
    DN(___,0,0x000),
    DN(A_4,2,0xC4A),
    DN(___,0,0x000),
    DN(___,0,0x000),
    DN(___,0,0x000),
    DN(Fs4,2,0xC4A),
    DN(___,0,0x000),
    DN(___,0,0x000),
    DN(___,0,0x000),
    DN(A_4,2,0xC4A),
    DN(___,0,0x000),
    DN(___,0,0x000),
    DN(___,0,0x000),
    DN(D_4,2,0xC4A),
    DN(___,0,0x000),
    DN(___,0,0x000),
    DN(___,0,0x000),
    DN(A_4,2,0xC4A),
    DN(___,0,0x000),
    DN(___,0,0x000),
    DN(___,0,0x000),
    DN(Cs4,2,0xC4A),
    DN(___,0,0x000),
    DN(___,0,0x000),
    DN(___,0,0x000),
    DN(A_4,2,0xC4A),
    DN(___,0,0x000),
    DN(___,0,0x000),
    DN(___,0,0x000),
    DN(___,0,0x000),
    DN(___,0,0x000),
    DN(___,0,0x000),
    DN(___,0,0x000),
    DN(___,0,0x000),
    DN(___,0,0x000),
    DN(___,0,0x000),
    DN(___,0,0x000),
    DN(___,0,0x000),
    DN(___,0,0x000),
    DN(___,0,0x000),
    DN(___,0,0x000),
    DN(___,0,0x000),
    DN(___,0,0x000),
    DN(___,0,0x000),
    DN(___,0,0x000),
};
static const unsigned char P13[] = {
    DN(Fs6,4,0xC3F),
    DN(___,0,0x000),
    DN(___,0,0x000),
    DN(___,0,0x000),
    DN(G_6,4,0xC3F),
    DN(___,0,0x000),
    DN(___,0,0x000),
    DN(___,0,0x000),
    DN(A_6,4,0xC3F),
    DN(___,0,0x000),
    DN(___,0,0x000),
    DN(___,0,0x000),
    DN(___,0,0x000),
    DN(___,0,0x000),
    DN(___,0,0x000),
    DN(___,0,0x000),
    DN(Cs6,4,0xC3F),
    DN(___,0,0x000),
    DN(___,0,0x000),
    DN(___,0,0x000),
    DN(___,0,0x000),
    DN(___,0,0x000),
    DN(___,0,0x000),
    DN(___,0,0x000),
    DN(D_6,4,0xC3F),
    DN(___,0,0x000),
    DN(___,0,0x000),
    DN(___,0,0x000),
    DN(E_6,4,0xC3F),
    DN(___,0,0x000),
    DN(___,0,0x000),
    DN(___,0,0x000),
    DN(Fs6,4,0xC3F),
    DN(___,0,0x000),
    DN(___,0,0x000),
    DN(___,0,0x000),
    DN(___,0,0x000),
    DN(___,0,0x000),
    DN(___,0,0x000),
    DN(___,0,0x000),
    DN(E_6,4,0xC3F),
    DN(___,0,0x000),
    DN(___,0,0x000),
    DN(___,0,0x000),
    DN(___,0,0x000),
    DN(___,0,0x000),
    DN(___,0,0x000),
    DN(___,0,0x000),
    DN(___,0,0x000),
    DN(___,0,0x000),
    DN(___,0,0x000),
    DN(___,0,0x000),
    DN(___,0,0x000),
    DN(___,0,0x000),
    DN(___,0,0x000),
    DN(___,0,0x000),
    DN(___,0,0x000),
    DN(___,0,0x000),
    DN(___,0,0x000),
    DN(___,0,0x000),
    DN(___,0,0x000),
    DN(___,0,0x000),
    DN(___,0,0x000),
    DN(___,0,0x000),
};
static const unsigned char P14[] = {
    DN(Fs6,4,0xC3F),
    DN(___,0,0x000),
    DN(___,0,0x000),
    DN(___,0,0x000),
    DN(___,0,0x000),
    DN(___,0,0x000),
    DN(___,0,0x000),
    DN(___,0,0x000),
    DN(B_6,4,0xC3F),
    DN(___,0,0x000),
    DN(___,0,0x000),
    DN(___,0,0x000),
    DN(___,0,0x000),
    DN(___,0,0x000),
    DN(___,0,0x000),
    DN(___,0,0x000),
    DN(Gs6,4,0xC3F),
    DN(___,0,0x000),
    DN(___,0,0x000),
    DN(___,0,0x000),
    DN(___,0,0x000),
    DN(___,0,0x000),
    DN(___,0,0x000),
    DN(___,0,0x000),
    DN(B_5,4,0xC3F),
    DN(___,0,0x000),
    DN(___,0,0x000),
    DN(___,0,0x000),
    DN(Cs6,4,0xC3F),
    DN(___,0,0x000),
    DN(___,0,0x000),
    DN(___,0,0x000),
    DN(D_6,4,0xC3F),
    DN(___,0,0x000),
    DN(___,0,0x000),
    DN(___,0,0x000),
    DN(___,0,0x000),
    DN(___,0,0x000),
    DN(___,0,0x000),
    DN(___,0,0x000),
    DN(Cs6,4,0xC3F),
    DN(___,0,0x000),
    DN(___,0,0x000),
    DN(___,0,0x000),
    DN(___,0,0x000),
    DN(___,0,0x000),
    DN(___,0,0x000),
    DN(___,0,0x000),
    DN(___,0,0x000),
    DN(___,0,0x000),
    DN(___,0,0x000),
    DN(___,0,0x000),
    DN(___,0,0x000),
    DN(___,0,0x000),
    DN(___,0,0x000),
    DN(___,0,0x000),
    DN(___,0,0x000),
    DN(___,0,0x000),
    DN(___,0,0x000),
    DN(___,0,0x000),
    DN(___,0,0x000),
    DN(___,0,0x000),
    DN(___,0,0x000),
    DN(___,0,0x000),
};
static const unsigned char P15[] = {
    DN(D_4,4,0xC4A),
    DN(___,0,0x000),
    DN(___,0,0x000),
    DN(___,0,0x000),
    DN(Fs4,4,0xC4A),
    DN(___,0,0x000),
    DN(___,0,0x000),
    DN(___,0,0x000),
    DN(D_4,4,0xC4A),
    DN(___,0,0x000),
    DN(___,0,0x000),
    DN(___,0,0x000),
    DN(B_3,4,0xC4A),
    DN(___,0,0x000),
    DN(___,0,0x000),
    DN(___,0,0x000),
    DN(B_4,4,0xC4A),
    DN(___,0,0x000),
    DN(___,0,0x000),
    DN(___,0,0x000),
    DN(Gs4,4,0xC4A),
    DN(___,0,0x000),
    DN(___,0,0x000),
    DN(___,0,0x000),
    DN(F_4,4,0xC4A),
    DN(___,0,0x000),
    DN(___,0,0x000),
    DN(___,0,0x000),
    DN(Gs4,4,0xC4A),
    DN(___,0,0x000),
    DN(___,0,0x000),
    DN(___,0,0x000),
    DN(Cs4,4,0xC4A),
    DN(___,0,0x000),
    DN(___,0,0x000),
    DN(___,0,0x000),
    DN(Gs4,4,0xC4A),
    DN(___,0,0x000),
    DN(___,0,0x000),
    DN(___,0,0x000),
    DN(F_4,4,0xC4A),
    DN(___,0,0x000),
    DN(___,0,0x000),
    DN(___,0,0x000),
    DN(Gs4,4,0xC4A),
    DN(___,0,0x000),
    DN(___,0,0x000),
    DN(___,0,0x000),
    DN(___,0,0x000),
    DN(___,0,0x000),
    DN(___,0,0x000),
    DN(___,0,0x000),
    DN(___,0,0x000),
    DN(___,0,0x000),
    DN(___,0,0x000),
    DN(___,0,0x000),
    DN(___,0,0x000),
    DN(___,0,0x000),
    DN(___,0,0x000),
    DN(___,0,0x000),
    DN(___,0,0x000),
    DN(___,0,0x000),
    DN(___,0,0x000),
    DN(___,0,0x000),
};
static const unsigned char P16[] = {
    DN(B_5,4,0xC3F),
    DN(___,0,0x000),
    DN(___,0,0x000),
    DN(___,0,0x000),
    DN(A_5,4,0xC3F),
    DN(___,0,0x000),
    DN(___,0,0x000),
    DN(___,0,0x000),
    DN(Gs5,4,0xC3F),
    DN(___,0,0x000),
    DN(___,0,0x000),
    DN(___,0,0x000),
    DN(Fs5,4,0xC3F),
    DN(___,0,0x000),
    DN(___,0,0x000),
    DN(___,0,0x000),
    DN(Gs5,4,0xC3F),
    DN(___,0,0x000),
    DN(___,0,0x000),
    DN(___,0,0x000),
    DN(E_5,4,0xC3F),
    DN(___,0,0x000),
    DN(___,0,0x000),
    DN(___,0,0x000),
    DN(Fs5,4,0xC3F),
    DN(___,0,0x000),
    DN(___,0,0x000),
    DN(___,0,0x000),
    DN(___,0,0x000),
    DN(___,0,0x000),
    DN(___,0,0x000),
    DN(___,0,0x000),
    DN(___,0,0x000),
    DN(___,0,0x000),
    DN(___,0,0x000),
    DN(___,0,0x000),
    DN(___,0,0x000),
    DN(___,0,0x000),
    DN(___,0,0x000),
    DN(___,0,0x000),
    DN(___,0,0x000),
    DN(___,0,0x000),
    DN(___,0,0x000),
    DN(___,0,0x000),
    DN(___,0,0x000),
    DN(___,0,0x000),
    DN(___,0,0x000),
    DN(___,0,0x000),
    DN(___,0,0x000),
    DN(___,0,0x000),
    DN(___,0,0x000),
    DN(___,0,0x000),
    DN(___,0,0x000),
    DN(___,0,0x000),
    DN(___,0,0x000),
    DN(___,0,0x000),
    DN(___,0,0x000),
    DN(___,0,0x000),
    DN(___,0,0x000),
    DN(___,0,0x000),
    DN(___,0,0x000),
    DN(___,0,0x000),
    DN(___,0,0x000),
    DN(___,0,0x000),
};
static const unsigned char P17[] = {
    DN(Fs4,4,0xC4A),
    DN(___,0,0x000),
    DN(___,0,0x000),
    DN(___,0,0x000),
    DN(___,0,0x000),
    DN(___,0,0x000),
    DN(___,0,0x000),
    DN(___,0,0x000),
    DN(Cs5,4,0xC4A),
    DN(___,0,0x000),
    DN(___,0,0x000),
    DN(___,0,0x000),
    DN(___,0,0x000),
    DN(___,0,0x000),
    DN(___,0,0x000),
    DN(___,0,0x000),
    DN(Cs4,4,0xC4A),
    DN(___,0,0x000),
    DN(___,0,0x000),
    DN(___,0,0x000),
    DN(___,0,0x000),
    DN(___,0,0x000),
    DN(___,0,0x000),
    DN(___,0,0x000),
    DN(Fs4,4,0xC4A),
    DN(___,0,0x000),
    DN(___,0,0x000),
    DN(___,0,0x000),
    DN(A_4,4,0xC4A),
    DN(___,0,0x000),
    DN(___,0,0x000),
    DN(___,0,0x000),
    DN(Cs5,4,0xC4A),
    DN(___,0,0x000),
    DN(___,0,0x000),
    DN(___,0,0x000),
    DN(A_4,4,0xC4A),
    DN(___,0,0x000),
    DN(___,0,0x000),
    DN(___,0,0x000),
    DN(E_4,4,0xC4A),
    DN(___,0,0x000),
    DN(___,0,0x000),
    DN(___,0,0x000),
    DN(A_4,4,0xC4A),
    DN(___,0,0x000),
    DN(___,0,0x000),
    DN(___,0,0x000),
    DN(___,0,0x000),
    DN(___,0,0x000),
    DN(___,0,0x000),
    DN(___,0,0x000),
    DN(___,0,0x000),
    DN(___,0,0x000),
    DN(___,0,0x000),
    DN(___,0,0x000),
    DN(___,0,0x000),
    DN(___,0,0x000),
    DN(___,0,0x000),
    DN(___,0,0x000),
    DN(___,0,0x000),
    DN(___,0,0x000),
    DN(___,0,0x000),
    DN(___,0,0x000),
};
static const unsigned char P18[] = {
    DN(A_5,4,0xC3F),
    DN(___,0,0x000),
    DN(___,0,0x000),
    DN(___,0,0x000),
    DN(___,0,0x000),
    DN(___,0,0x000),
    DN(___,0,0x000),
    DN(___,0,0x000),
    DN(___,0,0x000),
    DN(___,0,0x000),
    DN(___,0,0x000),
    DN(___,0,0x000),
    DN(B_5,4,0xC3F),
    DN(___,0,0x000),
    DN(C_6,4,0xC3F),
    DN(___,0,0x000),
    DN(B_5,4,0xC3F),
    DN(___,0,0x000),
    DN(___,0,0x000),
    DN(___,0,0x000),
    DN(___,0,0x000),
    DN(___,0,0x000),
    DN(___,0,0x000),
    DN(___,0,0x000),
    DN(A_5,4,0xC3F),
    DN(___,0,0x000),
    DN(___,0,0x000),
    DN(___,0,0x000),
    DN(G_5,4,0xC3F),
    DN(___,0,0x000),
    DN(___,0,0x000),
    DN(___,0,0x000),
    DN(A_5,4,0xC3F),
    DN(___,0,0x000),
    DN(___,0,0x000),
    DN(___,0,0x000),
    DN(Fs5,4,0xC3F),
    DN(___,0,0x000),
    DN(___,0,0x000),
    DN(___,0,0x000),
    DN(G_5,4,0xC3F),
    DN(___,0,0x000),
    DN(___,0,0x000),
    DN(___,0,0x000),
    DN(E_5,4,0xC3F),
    DN(___,0,0x000),
    DN(___,0,0x000),
    DN(___,0,0x000),
    DN(___,0,0x000),
    DN(___,0,0x000),
    DN(___,0,0x000),
    DN(___,0,0x000),
    DN(___,0,0x000),
    DN(___,0,0x000),
    DN(___,0,0x000),
    DN(___,0,0x000),
    DN(___,0,0x000),
    DN(___,0,0x000),
    DN(___,0,0x000),
    DN(___,0,0x000),
    DN(___,0,0x000),
    DN(___,0,0x000),
    DN(___,0,0x000),
    DN(___,0,0x000),
};
static const unsigned char P19[] = {
    DN(Ds4,4,0xC4A),
    DN(___,0,0x000),
    DN(___,0,0x000),
    DN(___,0,0x000),
    DN(Fs4,4,0xC4A),
    DN(___,0,0x000),
    DN(___,0,0x000),
    DN(___,0,0x000),
    DN(B_3,4,0xC4A),
    DN(___,0,0x000),
    DN(___,0,0x000),
    DN(___,0,0x000),
    DN(Fs4,4,0xC4A),
    DN(___,0,0x000),
    DN(___,0,0x000),
    DN(___,0,0x000),
    DN(Ds4,4,0xC4A),
    DN(___,0,0x000),
    DN(___,0,0x000),
    DN(___,0,0x000),
    DN(Fs4,4,0xC4A),
    DN(___,0,0x000),
    DN(___,0,0x000),
    DN(___,0,0x000),
    DN(E_4,4,0xC4A),
    DN(___,0,0x000),
    DN(___,0,0x000),
    DN(___,0,0x000),
    DN(___,0,0x000),
    DN(___,0,0x000),
    DN(___,0,0x000),
    DN(___,0,0x000),
    DN(___,0,0x000),
    DN(___,0,0x000),
    DN(___,0,0x000),
    DN(___,0,0x000),
    DN(___,0,0x000),
    DN(___,0,0x000),
    DN(___,0,0x000),
    DN(___,0,0x000),
    DN(___,0,0x000),
    DN(___,0,0x000),
    DN(___,0,0x000),
    DN(___,0,0x000),
    DN(___,0,0x000),
    DN(___,0,0x000),
    DN(___,0,0x000),
    DN(___,0,0x000),
    DN(___,0,0x000),
    DN(___,0,0x000),
    DN(___,0,0x000),
    DN(___,0,0x000),
    DN(___,0,0x000),
    DN(___,0,0x000),
    DN(___,0,0x000),
    DN(___,0,0x000),
    DN(___,0,0x000),
    DN(___,0,0x000),
    DN(___,0,0x000),
    DN(___,0,0x000),
    DN(___,0,0x000),
    DN(___,0,0x000),
    DN(___,0,0x000),
    DN(___,0,0x000),
};
static const unsigned char P20[] = {
    DN(B_5,4,0xC3F),
    DN(___,0,0x000),
    DN(___,0,0x000),
    DN(___,0,0x000),
    DN(___,0,0x000),
    DN(___,0,0x000),
    DN(___,0,0x000),
    DN(___,0,0x000),
    DN(___,0,0x000),
    DN(___,0,0x000),
    DN(___,0,0x000),
    DN(___,0,0x000),
    DN(Cs6,4,0xC3F),
    DN(___,0,0x000),
    DN(D_6,4,0xC3F),
    DN(___,0,0x000),
    DN(Cs6,4,0xC3F),
    DN(___,0,0x000),
    DN(___,0,0x000),
    DN(___,0,0x000),
    DN(___,0,0x000),
    DN(___,0,0x000),
    DN(___,0,0x000),
    DN(___,0,0x000),
    DN(B_5,4,0xC3F),
    DN(___,0,0x000),
    DN(___,0,0x000),
    DN(___,0,0x000),
    DN(As5,4,0xC3F),
    DN(___,0,0x000),
    DN(___,0,0x000),
    DN(___,0,0x000),
    DN(B_5,4,0xC3F),
    DN(___,0,0x000),
    DN(___,0,0x000),
    DN(___,0,0x000),
    DN(Gs5,4,0xC3F),
    DN(___,0,0x000),
    DN(___,0,0x000),
    DN(___,0,0x000),
    DN(As5,4,0xC3F),
    DN(___,0,0x000),
    DN(___,0,0x000),
    DN(___,0,0x000),
    DN(Fs5,4,0xC3F),
    DN(___,0,0x000),
    DN(___,0,0x000),
    DN(___,0,0x000),
    DN(___,0,0x000),
    DN(___,0,0x000),
    DN(___,0,0x000),
    DN(___,0,0x000),
    DN(___,0,0x000),
    DN(___,0,0x000),
    DN(___,0,0x000),
    DN(___,0,0x000),
    DN(___,0,0x000),
    DN(___,0,0x000),
    DN(___,0,0x000),
    DN(___,0,0x000),
    DN(___,0,0x000),
    DN(___,0,0x000),
    DN(___,0,0x000),
    DN(___,0,0x000),
};
static const unsigned char P21[] = {
    DN(F_4,4,0xC4A),
    DN(___,0,0x000),
    DN(___,0,0x000),
    DN(___,0,0x000),
    DN(Gs4,4,0xC4A),
    DN(___,0,0x000),
    DN(___,0,0x000),
    DN(___,0,0x000),
    DN(Cs4,4,0xC4A),
    DN(___,0,0x000),
    DN(___,0,0x000),
    DN(___,0,0x000),
    DN(Gs4,4,0xC4A),
    DN(___,0,0x000),
    DN(___,0,0x000),
    DN(___,0,0x000),
    DN(F_4,4,0xC4A),
    DN(___,0,0x000),
    DN(___,0,0x000),
    DN(___,0,0x000),
    DN(Gs4,4,0xC4A),
    DN(___,0,0x000),
    DN(___,0,0x000),
    DN(___,0,0x000),
    DN(Fs4,4,0xC4A),
    DN(___,0,0x000),
    DN(___,0,0x000),
    DN(___,0,0x000),
    DN(___,0,0x000),
    DN(___,0,0x000),
    DN(___,0,0x000),
    DN(___,0,0x000),
    DN(___,0,0x000),
    DN(___,0,0x000),
    DN(___,0,0x000),
    DN(___,0,0x000),
    DN(___,0,0x000),
    DN(___,0,0x000),
    DN(___,0,0x000),
    DN(___,0,0x000),
    DN(___,0,0x000),
    DN(___,0,0x000),
    DN(___,0,0x000),
    DN(___,0,0x000),
    DN(___,0,0x000),
    DN(___,0,0x000),
    DN(___,0,0x000),
    DN(___,0,0x000),
    DN(___,0,0x000),
    DN(___,0,0x000),
    DN(___,0,0x000),
    DN(___,0,0x000),
    DN(___,0,0x000),
    DN(___,0,0x000),
    DN(___,0,0x000),
    DN(___,0,0x000),
    DN(___,0,0x000),
    DN(___,0,0x000),
    DN(___,0,0x000),
    DN(___,0,0x000),
    DN(___,0,0x000),
    DN(___,0,0x000),
    DN(___,0,0x000),
    DN(___,0,0x000),
};
static const unsigned char P22[] = {
    DN(Cs6,4,0xC3F),
    DN(___,0,0x000),
    DN(___,0,0x000),
    DN(___,0,0x000),
    DN(As5,4,0xC3F),
    DN(___,0,0x000),
    DN(___,0,0x000),
    DN(___,0,0x000),
    DN(Fs5,4,0xC3F),
    DN(___,0,0x000),
    DN(___,0,0x000),
    DN(___,0,0x000),
    DN(As5,4,0xC3F),
    DN(___,0,0x000),
    DN(___,0,0x000),
    DN(___,0,0x000),
    DN(Cs6,4,0xC3F),
    DN(___,0,0x000),
    DN(___,0,0x000),
    DN(___,0,0x000),
    DN(E_6,4,0xC3F),
    DN(___,0,0x000),
    DN(___,0,0x000),
    DN(___,0,0x000),
    DN(G_6,4,0xC3F),
    DN(___,0,0x000),
    DN(___,0,0x000),
    DN(___,0,0x000),
    DN(Cs6,4,0xC3F),
    DN(___,0,0x000),
    DN(___,0,0x000),
    DN(___,0,0x000),
    DN(Fs6,4,0xC3F),
    DN(___,0,0x000),
    DN(___,0,0x000),
    DN(___,0,0x000),
    DN(Cs6,4,0xC3F),
    DN(___,0,0x000),
    DN(___,0,0x000),
    DN(___,0,0x000),
    DN(E_6,4,0xC3F),
    DN(___,0,0x000),
    DN(___,0,0x000),
    DN(___,0,0x000),
    DN(Cs6,4,0xC3F),
    DN(___,0,0x000),
    DN(___,0,0x000),
    DN(___,0,0x000),
    DN(___,0,0x000),
    DN(___,0,0x000),
    DN(___,0,0x000),
    DN(___,0,0x000),
    DN(___,0,0x000),
    DN(___,0,0x000),
    DN(___,0,0x000),
    DN(___,0,0x000),
    DN(___,0,0x000),
    DN(___,0,0x000),
    DN(___,0,0x000),
    DN(___,0,0x000),
    DN(___,0,0x000),
    DN(___,0,0x000),
    DN(___,0,0x000),
    DN(___,0,0x000),
};
static const unsigned char P23[] = {
    DN(Fs4,4,0xC4A),
    DN(___,0,0x000),
    DN(___,0,0x000),
    DN(___,0,0x000),
    DN(___,0,0x000),
    DN(___,0,0x000),
    DN(___,0,0x000),
    DN(___,0,0x000),
    DN(Cs4,4,0xC4A),
    DN(___,0,0x000),
    DN(___,0,0x000),
    DN(___,0,0x000),
    DN(___,0,0x000),
    DN(___,0,0x000),
    DN(___,0,0x000),
    DN(___,0,0x000),
    DN(As3,4,0xC4A),
    DN(___,0,0x000),
    DN(___,0,0x000),
    DN(___,0,0x000),
    DN(___,0,0x000),
    DN(___,0,0x000),
    DN(___,0,0x000),
    DN(___,0,0x000),
    DN(Fs3,4,0xC4A),
    DN(___,0,0x000),
    DN(___,0,0x000),
    DN(___,0,0x000),
    DN(___,0,0x000),
    DN(___,0,0x000),
    DN(___,0,0x000),
    DN(___,0,0x000),
    DN(Gs3,4,0xC4A),
    DN(___,0,0x000),
    DN(___,0,0x000),
    DN(___,0,0x000),
    DN(___,0,0x000),
    DN(___,0,0x000),
    DN(___,0,0x000),
    DN(___,0,0x000),
    DN(As3,4,0xC4A),
    DN(___,0,0x000),
    DN(___,0,0x000),
    DN(___,0,0x000),
    DN(___,0,0x000),
    DN(___,0,0x000),
    DN(___,0,0x000),
    DN(___,0,0x000),
    DN(___,0,0x000),
    DN(___,0,0x000),
    DN(___,0,0x000),
    DN(___,0,0x000),
    DN(___,0,0x000),
    DN(___,0,0x000),
    DN(___,0,0x000),
    DN(___,0,0x000),
    DN(___,0,0x000),
    DN(___,0,0x000),
    DN(___,0,0x000),
    DN(___,0,0x000),
    DN(___,0,0x000),
    DN(___,0,0x000),
    DN(___,0,0x000),
    DN(___,0,0x000),
};
static const unsigned char P24[] = {
    DN(D_6,4,0xC3F),
    DN(___,0,0x000),
    DN(___,0,0x000),
    DN(___,0,0x000),
    DN(Cs6,4,0xC3F),
    DN(___,0,0x000),
    DN(___,0,0x000),
    DN(___,0,0x000),
    DN(B_5,4,0xC3F),
    DN(___,0,0x000),
    DN(___,0,0x000),
    DN(___,0,0x000),
    DN(D_6,4,0xC3F),
    DN(___,0,0x000),
    DN(___,0,0x000),
    DN(___,0,0x000),
    DN(Fs6,4,0xC3F),
    DN(___,0,0x000),
    DN(___,0,0x000),
    DN(___,0,0x000),
    DN(B_6,4,0xC3F),
    DN(___,0,0x000),
    DN(___,0,0x000),
    DN(___,0,0x000),
    DN(Fs6,4,0xC3F),
    DN(___,0,0x000),
    DN(___,0,0x000),
    DN(___,0,0x000),
    DN(B_5,4,0xC3F),
    DN(___,0,0x000),
    DN(___,0,0x000),
    DN(___,0,0x000),
    DN(E_6,4,0xC3F),
    DN(___,0,0x000),
    DN(___,0,0x000),
    DN(___,0,0x000),
    DN(B_5,4,0xC3F),
    DN(___,0,0x000),
    DN(___,0,0x000),
    DN(___,0,0x000),
    DN(D_6,4,0xC3F),
    DN(___,0,0x000),
    DN(___,0,0x000),
    DN(___,0,0x000),
    DN(B_5,4,0xC3F),
    DN(___,0,0x000),
    DN(___,0,0x000),
    DN(___,0,0x000),
    DN(___,0,0x000),
    DN(___,0,0x000),
    DN(___,0,0x000),
    DN(___,0,0x000),
    DN(___,0,0x000),
    DN(___,0,0x000),
    DN(___,0,0x000),
    DN(___,0,0x000),
    DN(___,0,0x000),
    DN(___,0,0x000),
    DN(___,0,0x000),
    DN(___,0,0x000),
    DN(___,0,0x000),
    DN(___,0,0x000),
    DN(___,0,0x000),
    DN(___,0,0x000),
};
static const unsigned char P25[] = {
    DN(B_3,4,0xC4A),
    DN(___,0,0x000),
    DN(___,0,0x000),
    DN(___,0,0x000),
    DN(___,0,0x000),
    DN(___,0,0x000),
    DN(___,0,0x000),
    DN(___,0,0x000),
    DN(Fs4,4,0xC4A),
    DN(___,0,0x000),
    DN(___,0,0x000),
    DN(___,0,0x000),
    DN(___,0,0x000),
    DN(___,0,0x000),
    DN(___,0,0x000),
    DN(___,0,0x000),
    DN(B_4,4,0xC4A),
    DN(___,0,0x000),
    DN(___,0,0x000),
    DN(___,0,0x000),
    DN(___,0,0x000),
    DN(___,0,0x000),
    DN(___,0,0x000),
    DN(___,0,0x000),
    DN(D_5,4,0xC4A),
    DN(___,0,0x000),
    DN(___,0,0x000),
    DN(___,0,0x000),
    DN(___,0,0x000),
    DN(___,0,0x000),
    DN(___,0,0x000),
    DN(___,0,0x000),
    DN(Cs5,4,0xC4A),
    DN(___,0,0x000),
    DN(___,0,0x000),
    DN(___,0,0x000),
    DN(___,0,0x000),
    DN(___,0,0x000),
    DN(___,0,0x000),
    DN(___,0,0x000),
    DN(B_4,4,0xC4A),
    DN(___,0,0x000),
    DN(___,0,0x000),
    DN(___,0,0x000),
    DN(___,0,0x000),
    DN(___,0,0x000),
    DN(___,0,0x000),
    DN(___,0,0x000),
    DN(___,0,0x000),
    DN(___,0,0x000),
    DN(___,0,0x000),
    DN(___,0,0x000),
    DN(___,0,0x000),
    DN(___,0,0x000),
    DN(___,0,0x000),
    DN(___,0,0x000),
    DN(___,0,0x000),
    DN(___,0,0x000),
    DN(___,0,0x000),
    DN(___,0,0x000),
    DN(___,0,0x000),
    DN(___,0,0x000),
    DN(___,0,0x000),
    DN(___,0,0x000),
};
static const unsigned char P26[] = {
    DN(Cs6,4,0xC3F),
    DN(___,0,0x000),
    DN(___,0,0x000),
    DN(___,0,0x000),
    DN(B_5,4,0xC3F),
    DN(___,0,0x000),
    DN(___,0,0x000),
    DN(___,0,0x000),
    DN(D_6,4,0xC3F),
    DN(___,0,0x000),
    DN(___,0,0x000),
    DN(___,0,0x000),
    DN(B_5,4,0xC3F),
    DN(___,0,0x000),
    DN(___,0,0x000),
    DN(___,0,0x000),
    DN(E_6,4,0xC3F),
    DN(___,0,0x000),
    DN(___,0,0x000),
    DN(___,0,0x000),
    DN(B_5,4,0xC3F),
    DN(___,0,0x000),
    DN(___,0,0x000),
    DN(___,0,0x000),
    DN(Fs6,4,0xC3F),
    DN(___,0,0x000),
    DN(___,0,0x000),
    DN(___,0,0x000),
    DN(B_5,4,0xC3F),
    DN(___,0,0x000),
    DN(___,0,0x000),
    DN(___,0,0x000),
    DN(G_6,4,0xC3F),
    DN(___,0,0x000),
    DN(___,0,0x000),
    DN(___,0,0x000),
    DN(B_5,4,0xC3F),
    DN(___,0,0x000),
    DN(___,0,0x000),
    DN(___,0,0x000),
    DN(E_6,4,0xC3F),
    DN(___,0,0x000),
    DN(___,0,0x000),
    DN(___,0,0x000),
    DN(B_5,4,0xC3F),
    DN(___,0,0x000),
    DN(___,0,0x000),
    DN(___,0,0x000),
    DN(___,0,0x000),
    DN(___,0,0x000),
    DN(___,0,0x000),
    DN(___,0,0x000),
    DN(___,0,0x000),
    DN(___,0,0x000),
    DN(___,0,0x000),
    DN(___,0,0x000),
    DN(___,0,0x000),
    DN(___,0,0x000),
    DN(___,0,0x000),
    DN(___,0,0x000),
    DN(___,0,0x000),
    DN(___,0,0x000),
    DN(___,0,0x000),
    DN(___,0,0x000),
};
static const unsigned char P27[] = {
    DN(E_4,4,0xC4A),
    DN(___,0,0x000),
    DN(___,0,0x000),
    DN(___,0,0x000),
    DN(___,0,0x000),
    DN(___,0,0x000),
    DN(___,0,0x000),
    DN(___,0,0x000),
    DN(Fs4,4,0xC4A),
    DN(___,0,0x000),
    DN(___,0,0x000),
    DN(___,0,0x000),
    DN(___,0,0x000),
    DN(___,0,0x000),
    DN(___,0,0x000),
    DN(___,0,0x000),
    DN(G_4,4,0xC4A),
    DN(___,0,0x000),
    DN(___,0,0x000),
    DN(___,0,0x000),
    DN(___,0,0x000),
    DN(___,0,0x000),
    DN(___,0,0x000),
    DN(___,0,0x000),
    DN(D_4,4,0xC4A),
    DN(___,0,0x000),
    DN(___,0,0x000),
    DN(___,0,0x000),
    DN(___,0,0x000),
    DN(___,0,0x000),
    DN(___,0,0x000),
    DN(___,0,0x000),
    DN(E_4,4,0xC4A),
    DN(___,0,0x000),
    DN(___,0,0x000),
    DN(___,0,0x000),
    DN(___,0,0x000),
    DN(___,0,0x000),
    DN(___,0,0x000),
    DN(___,0,0x000),
    DN(Cs4,4,0xC4A),
    DN(___,0,0x000),
    DN(___,0,0x000),
    DN(___,0,0x000),
    DN(___,0,0x000),
    DN(___,0,0x000),
    DN(___,0,0x000),
    DN(___,0,0x000),
    DN(___,0,0x000),
    DN(___,0,0x000),
    DN(___,0,0x000),
    DN(___,0,0x000),
    DN(___,0,0x000),
    DN(___,0,0x000),
    DN(___,0,0x000),
    DN(___,0,0x000),
    DN(___,0,0x000),
    DN(___,0,0x000),
    DN(___,0,0x000),
    DN(___,0,0x000),
    DN(___,0,0x000),
    DN(___,0,0x000),
    DN(___,0,0x000),
    DN(___,0,0x000),
};
static const unsigned char P28[] = {
    DN(E_6,4,0xC3F),
    DN(___,0,0x000),
    DN(___,0,0x000),
    DN(___,0,0x000),
    DN(Fs6,4,0xC3F),
    DN(___,0,0x000),
    DN(___,0,0x000),
    DN(___,0,0x000),
    DN(E_6,4,0xC3F),
    DN(___,0,0x000),
    DN(___,0,0x000),
    DN(___,0,0x000),
    DN(D_6,4,0xC3F),
    DN(___,0,0x000),
    DN(___,0,0x000),
    DN(___,0,0x000),
    DN(Cs6,4,0xC3F),
    DN(___,0,0x000),
    DN(___,0,0x000),
    DN(___,0,0x000),
    DN(D_6,4,0xC3F),
    DN(___,0,0x000),
    DN(___,0,0x000),
    DN(___,0,0x000),
    DN(B_5,4,0xC3F),
    DN(___,0,0x000),
    DN(___,0,0x000),
    DN(___,0,0x000),
    DN(___,0,0x000),
    DN(___,0,0x000),
    DN(___,0,0x000),
    DN(___,0,0x000),
    DN(___,0,0x000),
    DN(___,0,0x000),
    DN(___,0,0x000),
    DN(___,0,0x000),
    DN(___,0,0x000),
    DN(___,0,0x000),
    DN(___,0,0x000),
    DN(___,0,0x000),
    DN(___,0,0x000),
    DN(___,0,0x000),
    DN(___,0,0x000),
    DN(___,0,0x000),
    DN(___,0,0x000),
    DN(___,0,0x000),
    DN(___,0,0x000),
    DN(___,0,0x000),
    DN(___,0,0x000),
    DN(___,0,0x000),
    DN(___,0,0x000),
    DN(___,0,0x000),
    DN(___,0,0x000),
    DN(___,0,0x000),
    DN(___,0,0x000),
    DN(___,0,0x000),
    DN(___,0,0x000),
    DN(___,0,0x000),
    DN(___,0,0x000),
    DN(___,0,0x000),
    DN(___,0,0x000),
    DN(___,0,0x000),
    DN(___,0,0x000),
    DN(___,0,0x000),
};
static const unsigned char P29[] = {
    DN(D_4,4,0xC4A),
    DN(___,0,0x000),
    DN(___,0,0x000),
    DN(___,0,0x000),
    DN(___,0,0x000),
    DN(___,0,0x000),
    DN(___,0,0x000),
    DN(___,0,0x000),
    DN(E_4,4,0xC4A),
    DN(___,0,0x000),
    DN(___,0,0x000),
    DN(___,0,0x000),
    DN(___,0,0x000),
    DN(___,0,0x000),
    DN(___,0,0x000),
    DN(___,0,0x000),
    DN(Fs4,4,0xC4A),
    DN(___,0,0x000),
    DN(___,0,0x000),
    DN(___,0,0x000),
    DN(___,0,0x000),
    DN(___,0,0x000),
    DN(___,0,0x000),
    DN(___,0,0x000),
    DN(B_4,4,0xC4A),
    DN(___,0,0x000),
    DN(___,0,0x000),
    DN(___,0,0x000),
    DN(___,0,0x000),
    DN(___,0,0x000),
    DN(___,0,0x000),
    DN(___,0,0x000),
    DN(Fs4,4,0xC4A),
    DN(___,0,0x000),
    DN(___,0,0x000),
    DN(___,0,0x000),
    DN(___,0,0x000),
    DN(___,0,0x000),
    DN(___,0,0x000),
    DN(___,0,0x000),
    DN(B_3,4,0xC4A),
    DN(___,0,0x000),
    DN(___,0,0x000),
    DN(___,0,0x000),
    DN(___,0,0x000),
    DN(___,0,0x000),
    DN(___,0,0x000),
    DN(___,0,0x000),
    DN(___,0,0x000),
    DN(___,0,0x000),
    DN(___,0,0x000),
    DN(___,0,0x000),
    DN(___,0,0x000),
    DN(___,0,0x000),
    DN(___,0,0x000),
    DN(___,0,0x000),
    DN(___,0,0x000),
    DN(___,0,0x000),
    DN(___,0,0x000),
    DN(___,0,0x000),
    DN(___,0,0x000),
    DN(___,0,0x000),
    DN(___,0,0x000),
    DN(___,0,0x000),
};

static const unsigned char* const order1[] = {P1,P1,P4,P6,P1,P1,P8,P9,P1,P1,P4,P6,P1,P1,P8,P9,P11,P13,P14,P16,P18,P20,P22,P24,P26,P28,P11,P13,P14,P16,P18,P20,P22,P24,P26,P28};
static const unsigned char* const order2[] = {P2,P3,P5,P7,P2,P3,P5,P10,P2,P3,P5,P7,P2,P3,P5,P10,P12,P12,P15,P17,P19,P21,P23,P25,P27,P29,P12,P12,P15,P17,P19,P21,P23,P25,P27,P29};
static const unsigned char* const order3[] = {P0,P0,P0,P0,P0,P0,P0,P0,P0,P0,P0,P0,P0,P0,P0,P0,P0,P0,P0,P0,P0,P0,P0,P0,P0,P0,P0,P0,P0,P0,P0,P0,P0,P0,P0,P0};
static const unsigned char* const order4[] = {P0,P0,P0,P0,P0,P0,P0,P0,P0,P0,P0,P0,P0,P0,P0,P0,P0,P0,P0,P0,P0,P0,P0,P0,P0,P0,P0,P0,P0,P0,P0,P0,P0,P0,P0,P0};

static const hUGEDutyInstr_t duty_instruments[] = {
    {8,0,240,0,128},
    {8,64,240,0,128},
    {8,128,240,0,128},
    {8,192,240,0,128},
    {8,0,241,0,128},
    {8,64,241,0,128},
    {8,128,241,0,128},
    {8,192,241,0,128},
    {8,128,240,0,128},
    {8,128,240,0,128},
    {8,128,240,0,128},
    {8,128,240,0,128},
    {8,128,240,0,128},
    {8,128,240,0,128},
    {8,128,240,0,128},
};
static const hUGEWaveInstr_t wave_instruments[] = {
    {0,32,0,0,128},
    {0,32,1,0,128},
    {0,32,2,0,128},
    {0,32,3,0,128},
    {0,32,4,0,128},
    {0,32,5,0,128},
    {0,32,6,0,128},
    {0,32,7,0,128},
    {0,32,8,0,128},
    {0,32,9,0,128},
    {0,32,10,0,128},
    {0,32,11,0,128},
    {0,32,12,0,128},
    {0,32,13,0,128},
    {0,32,14,0,128},
};
static const hUGENoiseInstr_t noise_instruments[] = {
    {240,0,0,0,0},
    {240,0,0,0,0},
    {240,0,0,0,0},
    {240,0,0,0,0},
    {240,0,0,0,0},
    {240,0,0,0,0},
    {240,0,0,0,0},
    {240,0,0,0,0},
    {240,0,0,0,0},
    {240,0,0,0,0},
    {240,0,0,0,0},
    {240,0,0,0,0},
    {240,0,0,0,0},
    {240,0,0,0,0},
    {240,0,0,0,0},
};

static const unsigned char waves[] = {
    0,0,255,255,255,255,255,255,255,255,255,255,255,255,255,255,
    0,0,0,0,255,255,255,255,255,255,255,255,255,255,255,255,
    0,0,0,0,0,0,0,0,255,255,255,255,255,255,255,255,
    0,0,0,0,0,0,0,0,0,0,0,0,255,255,255,255,
    0,1,18,35,52,69,86,103,120,137,154,171,188,205,222,239,
    254,220,186,152,118,84,50,16,18,52,86,120,154,188,222,255,
    122,205,219,117,33,19,104,189,220,151,65,1,71,156,221,184,
    15,15,15,15,15,15,15,15,15,15,15,15,15,15,15,15,
    254,252,250,248,246,244,242,240,242,244,246,248,250,252,254,255,
    254,221,204,187,170,153,136,119,138,189,241,36,87,138,189,238,
    132,17,97,237,87,71,90,173,206,163,23,121,221,32,3,71,
    82,10,136,190,51,236,121,211,208,7,24,69,168,59,123,69,
    233,126,99,173,199,87,100,181,164,212,218,142,65,232,171,92,
    36,62,50,35,213,149,10,110,42,86,16,177,72,58,179,9,
    55,26,161,8,72,197,81,156,50,36,231,129,158,30,227,186,
    181,224,98,129,39,161,185,120,67,157,23,201,141,61,156,48,
};

const hUGESong_t Menuet = {3, &order_cnt, order1, order2, order3,order4, duty_instruments, wave_instruments, noise_instruments, NULL, waves};
